<svg width="64" height="64" viewBox="0 0 64 64" fill="none" xmlns="http://www.w3.org/2000/svg">
<g opacity="0.6" clip-path="url(#clip0_140_120)">
<path fill-rule="evenodd" clip-rule="evenodd" d="M30.5 60C47.0685 60 60.5 46.5685 60.5 30C60.5 13.4315 47.0685 0 30.5 0C13.9315 0 0.5 13.4315 0.5 30C0.5 46.5685 13.9315 60 30.5 60ZM34.7012 37.2318L45.0137 28.3783C45.6641 27.8158 45.6641 26.808 45.0131 26.1963L34.7006 17.3428C33.7977 16.5635 32.375 17.1957 32.375 18.4068V23.0932C22.9648 23.2045 15.5 25.0912 15.5 34.0092C15.5 37.6127 17.8197 41.1752 20.3832 43.0396C21.183 43.6221 22.3221 42.8914 22.0273 41.9486C19.3707 33.4525 23.2871 31.1967 32.3756 31.0678V36.1678C32.3756 37.381 33.8 38.0111 34.7012 37.2318Z" fill="#D9D9D9"/>
</g>
<defs>
<clipPath id="clip0_140_120">
<rect width="63" height="64" fill="white" transform="translate(0.5)"/>
</clipPath>
</defs>
</svg>
