<svg width="64" height="64" viewBox="0 0 64 64" fill="none" xmlns="http://www.w3.org/2000/svg">
<g opacity="0.6" clip-path="url(#clip0_140_118)">
<path fill-rule="evenodd" clip-rule="evenodd" d="M30.5 60C47.0685 60 60.5 46.5685 60.5 30C60.5 13.4315 47.0685 0 30.5 0C13.9315 0 0.5 13.4315 0.5 30C0.5 46.5685 13.9315 60 30.5 60ZM30.5 24.6662C27.0023 24.6662 24.1677 27.5023 24.1677 31C24.1677 34.4977 27.0023 37.3338 30.5 37.3338C33.9977 37.3338 36.8339 34.4977 36.8339 31C36.8339 27.5023 33.9977 24.6662 30.5 24.6662ZM30.5 40.7563C25.1116 40.7563 20.7437 36.3885 20.7437 31C20.7437 25.6116 25.1116 21.2437 30.5 21.2437C35.8885 21.2437 40.2563 25.6116 40.2563 31C40.2563 36.3885 35.8885 40.7563 30.5 40.7563ZM40.6431 23.1376C39.383 23.1376 38.3624 22.1154 38.3624 20.8569C38.3624 19.5985 39.383 18.5779 40.6431 18.5779C41.9031 18.5779 42.9237 19.5985 42.9237 20.8569C42.9237 22.1154 41.9015 23.1376 40.6431 23.1376ZM19.2949 45.8117C19.9641 46.0726 20.9708 46.3811 22.8233 46.4655C24.8261 46.5576 25.4277 46.576 30.5 46.576C35.5738 46.576 36.1754 46.5576 38.1783 46.4655C40.0307 46.3811 41.0375 46.0726 41.7066 45.8117C42.5937 45.4664 43.2276 45.0551 43.8921 44.3905C44.5566 43.726 44.9679 43.0937 45.3133 42.2066C45.5726 41.5375 45.8826 40.5307 45.9671 38.6783C46.0591 36.6739 46.0776 36.0723 46.0776 31C46.0776 25.9262 46.0591 25.3261 45.9671 23.3217C45.8826 21.4693 45.5742 20.4625 45.3133 19.7934C44.9679 18.9063 44.5566 18.2725 43.8921 17.6079C43.226 16.9434 42.5937 16.5305 41.7066 16.1868C41.036 15.9274 40.0307 15.6174 38.1783 15.533C36.1739 15.4424 35.5738 15.4225 30.5 15.4225C25.4277 15.4225 24.8261 15.4409 22.8233 15.533C20.9708 15.6174 19.9641 15.9258 19.2949 16.1868C18.4063 16.5305 17.774 16.9434 17.1095 17.6079C16.4449 18.274 16.0336 18.9063 15.6883 19.7934C15.4289 20.4641 15.1189 21.4693 15.0345 23.3217C14.9439 25.3261 14.924 25.9262 14.924 31C14.924 36.0738 14.9424 36.6754 15.0345 38.6783C15.1189 40.5307 15.4274 41.5375 15.6883 42.2066C16.0321 43.0937 16.4449 43.726 17.1095 44.3905C17.7755 45.0551 18.4078 45.4664 19.2949 45.8117ZM18.0548 12.9976C19.2627 12.5279 20.6439 12.2072 22.6667 12.1151C24.6941 12.0215 25.3402 12 30.5015 12C35.6613 12 36.309 12.023 38.3348 12.1151C40.3561 12.2057 41.7373 12.5279 42.9467 12.9976C44.1944 13.4826 45.2549 14.1333 46.3108 15.1892C47.3667 16.2466 48.0159 17.3056 48.5024 18.5548C48.9721 19.7627 49.2928 21.1439 49.3849 23.1667C49.477 25.1926 49.4985 25.8402 49.4985 31C49.4985 36.1598 49.477 36.8059 49.3849 38.8333C49.2944 40.8561 48.9721 42.2373 48.5024 43.4452C48.0159 44.6944 47.3667 45.7549 46.3108 46.8108C45.2534 47.8667 44.1944 48.5159 42.9452 49.0024C41.7373 49.4721 40.3561 49.7928 38.3333 49.8849C36.3074 49.9785 35.6613 50 30.5 50C25.3402 50 24.6941 49.977 22.6667 49.8849C20.6439 49.7928 19.2642 49.4721 18.0548 49.0024C16.804 48.5159 15.7451 47.8667 14.6892 46.8108C13.6317 45.7549 12.9826 44.6944 12.4976 43.4452C12.0279 42.2373 11.7072 40.8561 11.6151 38.8333C11.5215 36.8074 11.5 36.1598 11.5 31C11.5 25.8402 11.5215 25.1926 11.6151 23.1667C11.7072 21.1439 12.0279 19.7627 12.4976 18.5548C12.9826 17.304 13.6333 16.2451 14.6892 15.1892C15.7466 14.1333 16.8056 13.4826 18.0548 12.9976Z" fill="#D9D9D9"/>
</g>
<defs>
<clipPath id="clip0_140_118">
<rect width="63" height="64" fill="white" transform="translate(0.5)"/>
</clipPath>
</defs>
</svg>
