<svg width="61" height="60" viewBox="0 0 61 60" fill="none" xmlns="http://www.w3.org/2000/svg">
<g clip-path="url(#clip0_140_117)">
<path opacity="0.6" d="M30.5 0C13.9313 0 0.5 13.4313 0.5 30C0.5 46.5686 13.9313 60 30.5 60C47.0686 60 60.5001 46.5686 60.5001 30C60.5 13.4313 47.0684 0 30.5 0ZM22.4959 44.5036H15.9091V23.2235H22.4959V44.5036ZM19.1712 20.4368C17.02 20.4368 15.2761 18.6786 15.2761 16.5102C15.2761 14.3416 17.0202 12.5836 19.1712 12.5836C21.3221 12.5836 23.066 14.3416 23.066 16.5102C23.0661 18.6787 21.3222 20.4368 19.1712 20.4368ZM47.18 44.5036H40.6251V33.3333C40.6251 30.2697 39.4614 28.5595 37.0388 28.5595C34.4023 28.5595 33.025 30.3406 33.025 33.3333V44.5036H26.7075V23.2235H33.025V26.0896C33.025 26.0896 34.9253 22.5744 39.4375 22.5744C43.9499 22.5744 47.1801 25.3297 47.1801 31.0294L47.18 44.5036Z" fill="#D9D9D9"/>
</g>
<defs>
<clipPath id="clip0_140_117">
<rect width="60" height="60" fill="white" transform="translate(0.5)"/>
</clipPath>
</defs>
</svg>
