<svg width="61" height="60" viewBox="0 0 61 60" fill="none" xmlns="http://www.w3.org/2000/svg">
<g opacity="0.6" clip-path="url(#clip0_140_119)">
<path fill-rule="evenodd" clip-rule="evenodd" d="M30.5 60C47.0685 60 60.5 46.5685 60.5 30C60.5 13.4315 47.0685 0 30.5 0C13.9315 0 0.5 13.4315 0.5 30C0.5 46.5685 13.9315 60 30.5 60ZM31.1252 10.0002C36.2878 9.97587 41.2457 12.0445 44.8598 15.7318C48.4781 19.365 50.5 24.2962 50.4745 29.4239C50.4809 40.0962 41.7329 48.8952 31.0616 48.9536C27.8204 48.9824 24.6262 48.1784 21.785 46.6185L11.5 49.272L14.2597 39.1887C12.6274 36.2283 11.7523 32.9103 11.7123 29.53C11.7123 29.5051 11.712 29.4804 11.7118 29.4557C11.7115 29.431 11.7112 29.4063 11.7112 29.3814C11.7112 18.7494 20.4603 10.0002 31.0923 10.0002H31.1252ZM22.9631 43.4343C25.4297 44.9075 28.2522 45.6782 31.1252 45.6632H31.1783C34.1463 45.6704 37.0536 44.8229 39.5527 43.222C44.2781 40.2873 47.1598 35.1055 47.1598 29.5438C47.1598 20.7109 39.8913 13.4423 31.0584 13.4423C22.2254 13.4423 14.957 20.7109 14.957 29.5438C14.957 32.539 15.7925 35.4748 17.3695 38.0212L17.7941 38.658L16.202 44.708L22.3263 43.1159L22.9631 43.4343ZM39.3405 33.351L40.508 33.8817H40.4974C40.6132 33.9368 40.7204 34.0083 40.8158 34.094V34.837C40.7383 35.3486 40.595 35.8474 40.3913 36.323C40.2469 36.5603 40.068 36.775 39.8605 36.9598C39.7544 37.0659 39.6483 37.1456 39.5421 37.2252C39.436 37.3048 39.3298 37.3843 39.2237 37.4905L39.0114 37.7028C38.7769 37.8673 38.5285 38.0095 38.2685 38.1273C37.7738 38.3798 37.2311 38.5245 36.6764 38.5519H35.615C35.4557 38.4988 35.27 38.4723 35.0843 38.4457C34.8985 38.4192 34.7128 38.3927 34.5536 38.3396C31.7334 37.5998 29.1213 36.22 26.9221 34.3063C26.6662 33.9973 26.3819 33.7131 26.073 33.4572L25.6485 33.0326C24.0072 31.4943 22.6743 29.6571 21.7213 27.6195L21.6151 27.3011C21.2766 26.531 21.0962 25.7009 21.0844 24.8598C21.0994 23.6642 21.51 22.5072 22.252 21.5695C22.3406 21.4809 22.4107 21.3738 22.4778 21.2713C22.5713 21.1284 22.659 20.9945 22.7826 20.9327C22.8888 20.8796 22.995 20.8 23.1011 20.7204C23.2072 20.6408 23.3134 20.5612 23.4195 20.5081L23.5256 20.402C23.6318 20.402 23.7379 20.3754 23.8441 20.3489C23.9502 20.3224 24.0563 20.2958 24.1625 20.2958H25.33C25.6364 20.3712 25.9023 20.5611 26.073 20.8265C26.7097 22.1401 27.2766 23.4864 27.7712 24.8598C27.8137 25.0416 27.8167 25.2304 27.7801 25.4135C27.7434 25.5966 27.668 25.7697 27.5589 25.9212C27.4635 26.0167 27.411 26.1121 27.3532 26.2171C27.2824 26.3458 27.2036 26.4889 27.0282 26.6642C26.7098 26.9826 26.3819 27.3541 26.2853 27.5134C26.1889 27.6724 26.1514 27.8602 26.1791 28.044C26.2276 28.1956 26.2992 28.3389 26.3914 28.4686L26.4976 28.6809C27.0499 29.6184 27.7285 30.4755 28.5142 31.2282C28.6203 31.3343 28.7529 31.4404 28.8856 31.5465C29.0183 31.6527 29.151 31.7589 29.2572 31.8651C30.1539 32.7165 31.1965 33.3996 32.3352 33.8817L32.866 34.094C32.9831 34.2056 33.1309 34.2796 33.2905 34.3063H33.3967C33.6195 34.3106 33.8265 34.1864 33.9273 33.9879C34.6065 33.2117 34.9502 32.7958 35.1448 32.5603C35.3759 32.2806 35.3967 32.2555 35.5194 32.1835C35.745 32.0507 36.0007 31.9777 36.2624 31.9712C36.3155 31.9712 36.3686 31.9978 36.4216 32.0243C36.4747 32.0508 36.5278 32.0774 36.5808 32.0774C37.6422 32.608 39.3405 33.351 39.3405 33.351Z" fill="#D9D9D9"/>
</g>
<defs>
<clipPath id="clip0_140_119">
<rect width="60" height="60" fill="white" transform="translate(0.5)"/>
</clipPath>
</defs>
</svg>
