<svg width="171" height="80" viewBox="0 0 171 80" fill="none" xmlns="http://www.w3.org/2000/svg">
<g clip-path="url(#clip0_83_240)">
<path d="M18.6862 14.2656C13.2112 14.2656 10.291 14.6306 9.01297 14.6306C6.88364 14.6306 4.99778 14.5695 3.11113 14.5695C2.07729 14.5695 1.89478 14.6307 1.89478 15.056C1.89478 15.7846 2.13782 15.8463 4.87634 15.8463C6.57902 15.8463 7.55356 16.3933 7.55356 21.194V49.1485C7.55356 50.06 7.43109 50.1817 4.69363 50.1817C3.35497 50.1817 2.98959 50.3025 2.98959 50.9109C2.98959 51.5184 3.41556 51.5791 4.0247 51.5791C5.97104 51.5791 7.30969 51.3363 9.8647 51.3363C12.5415 51.3363 15.0971 51.9433 17.6526 51.9433C26.1098 51.9433 31.7683 48.7234 31.7683 41.9168C31.7683 36.6299 28.1775 34.5632 25.3182 33.1039C24.1014 32.4964 22.9452 32.1927 22.9452 32.0715C22.9452 31.8897 24.2839 31.2208 25.4405 30.4305C27.3879 29.0939 30.0038 26.9659 30.0038 22.6515C30.0038 18.3367 26.5967 14.2656 18.6862 14.2656ZM122.931 14.3351C122.614 14.3351 120.603 15.2337 116.475 15.4981C115.576 15.5509 115.152 15.4975 115.152 16.1318C115.152 16.7139 115.682 16.8199 116.634 16.8199C119.015 16.8199 119.333 16.8196 119.333 20.1492V49.2738C119.333 50.2253 118.433 50.1726 116.264 50.1726C114.993 50.1726 114.94 50.4906 114.94 50.8606C114.94 51.2833 115.046 51.389 116.264 51.389C117.004 51.389 119.81 51.2836 121.608 51.2836C122.562 51.2836 123.726 51.389 124.519 51.389C126.424 51.389 126.794 51.3889 126.794 50.8606C126.794 50.4369 126.9 50.1199 124.254 50.1199C123.302 50.1199 122.931 49.5385 122.931 45.1518C122.931 43.6182 123.196 39.4431 123.196 19.3036C123.196 17.7182 123.46 15.8143 123.46 15.18C123.46 14.5984 123.196 14.3351 122.931 14.3351ZM78.9974 14.3878C78.5208 14.3878 75.3982 15.5501 71.5887 15.5501C71.0064 15.5501 70.9006 15.7617 70.9006 16.29C70.9006 16.6609 71.1123 16.82 73.2812 16.82C74.7099 16.82 75.1336 17.2958 75.1336 21.0482C75.1336 32.2016 74.9746 47.8474 74.9746 49.38C74.9746 50.1727 74.4985 50.1727 72.6995 50.1727C71.4293 50.1727 71.1651 50.4369 71.1651 50.8607C71.1651 51.3362 71.4826 51.3891 72.6995 51.3891C73.4402 51.3891 75.3985 51.2837 77.1986 51.2837C78.8919 51.2837 81.3252 51.3891 82.1188 51.3891C83.2828 51.3891 83.5477 51.389 83.5477 50.8607C83.5477 50.4369 83.3362 50.1727 82.1188 50.1727C78.8382 50.1727 78.9446 50.173 78.9446 47.6894V44.3593C78.9446 43.8833 79.6852 43.5128 80.5317 42.984C81.431 42.4024 82.1715 41.8744 82.3833 41.8744C82.7009 41.8744 84.9246 45.2052 87.1469 47.7421C89.3692 50.279 89.8458 51.6006 90.7989 51.6006C91.5397 51.6006 93.127 51.5479 93.7621 51.5479C94.2381 51.5479 94.9258 51.6006 95.5609 51.6006C96.7249 51.6006 97.0953 51.4948 97.0953 51.1249C97.0953 50.7021 96.6724 50.4368 95.4027 50.4368C93.6036 50.4368 91.9101 47.8472 90.1101 45.6803C86.4063 41.2398 85.4543 40.2359 85.4543 39.7599C85.4543 39.39 88.7349 37.0649 91.3814 34.4742C93.0215 32.8888 94.8202 30.6163 94.8202 30.1399C94.8202 29.981 94.6089 29.9283 94.1856 29.9283C93.551 29.9283 90.4807 30.0864 89.7928 30.0864C89.1577 30.0864 88.1528 29.9283 87.6239 29.9283C86.936 29.9283 86.6714 30.0338 86.6714 30.4575C86.6714 30.9335 86.9358 31.0386 87.7294 31.0386C90.0574 31.0386 90.2163 31.1446 90.2163 31.9901C90.2163 33.1 89.7399 33.9987 87.6766 35.9541C85.9833 37.5405 80.4786 42.4029 79.1556 42.4029C78.9971 42.4029 78.9446 42.2442 78.9446 42.0325C78.9446 33.417 79.2611 27.4971 79.2611 19.4626C79.2611 17.7712 79.3674 15.55 79.3674 14.8633C79.3674 14.5461 79.2616 14.3878 78.9974 14.3878ZM16.8602 15.7241C22.3968 15.7241 24.9523 21.5585 24.9523 24.5974C24.9523 29.398 22.9446 30.5528 21.1803 31.8899C21.1803 31.8899 18.6244 31.5249 14.9137 31.5249C13.4528 31.5249 12.6623 31.646 12.6623 30.6735V17.4869C12.6623 16.2715 12.8452 15.7241 16.8602 15.7241ZM43.5415 29.3994C38.726 29.3994 33.6982 33.8399 33.6982 41.2928C33.6982 50.12 40.1547 52.2352 44.4936 52.2352C48.7801 52.2352 53.2783 48.904 53.2783 48.6401C53.2783 48.534 53.1195 48.217 52.8548 48.217C52.5378 48.217 50.6327 49.4861 47.1403 49.4861C43.1179 49.4861 37.4549 47.5302 37.4549 40.2356C37.4549 39.0201 37.6143 38.7558 38.4618 38.703C44.4936 38.333 49.7856 37.1708 51.1614 36.8527C52.5911 36.5355 53.3319 36.3244 53.3319 36.1128C53.3319 35.69 52.4845 34.4211 51.5843 33.3645C49.6795 31.1443 46.2936 29.3994 43.5415 29.3994ZM105.246 29.3994C100.431 29.3994 95.4028 33.8399 95.4028 41.2928C95.4028 50.12 101.859 52.2352 106.198 52.2352C110.484 52.2352 114.983 48.904 114.983 48.6401C114.983 48.534 114.824 48.217 114.559 48.217C114.242 48.217 112.337 49.4861 108.844 49.4861C104.822 49.4861 99.1603 47.5302 99.1603 40.2356C99.1603 39.0201 99.3191 38.7558 100.166 38.703C106.198 38.333 111.489 37.1708 112.866 36.8527C114.295 36.5355 115.036 36.3244 115.036 36.1128C115.036 35.69 114.19 34.4211 113.29 33.3645C111.384 31.1443 107.998 29.3994 105.246 29.3994ZM135.769 29.3994C130.953 29.3994 125.926 33.8399 125.926 41.2928C125.926 50.12 132.382 52.2352 136.721 52.2352C141.008 52.2352 145.506 48.904 145.506 48.6401C145.506 48.534 145.347 48.217 145.083 48.217C144.765 48.217 142.861 49.4861 139.367 49.4861C135.346 49.4861 129.683 47.5302 129.683 40.2356C129.683 39.0201 129.842 38.7558 130.689 38.703C136.722 38.333 142.014 37.1708 143.389 36.8527C144.818 36.5355 145.559 36.3244 145.559 36.1128C145.559 35.69 144.713 34.4211 143.813 33.3645C141.908 31.1443 138.52 29.3994 135.769 29.3994ZM61.9569 29.769C61.1094 29.769 60.1039 30.0332 59.2574 30.0332C58.1991 30.0332 57.1934 29.9271 55.3944 29.9271C54.4941 29.9271 54.5473 30.0864 54.5473 30.7212C54.5473 31.3028 54.547 31.2497 55.5006 31.2497C58.4637 31.2497 58.3575 31.3554 58.3575 34.9494V49.433C58.3575 50.1729 58.1991 50.2257 56.0296 50.2257C54.759 50.2257 54.7062 50.331 54.7062 50.8602C54.7062 51.389 54.8118 51.3887 56.0296 51.3887C56.7704 51.3887 58.5699 51.1244 60.3689 51.1244C62.0628 51.1244 65.608 51.3887 66.3488 51.3887C67.7246 51.3887 67.7776 51.4418 67.7776 50.8602C67.7776 50.3837 67.7246 50.2257 66.3488 50.2257C62.4331 50.2257 62.2748 50.2252 62.2748 47.6355V36.7459C62.2748 34.5262 63.4383 33.2576 66.507 33.2576C69.1535 33.2576 69.789 35.4248 70.5297 35.4248C70.8473 35.4248 71.6934 33.0992 71.6934 32.5704C71.6934 31.1966 69.2595 30.0329 68.3059 30.0329C65.8189 30.0329 63.3329 32.7819 62.5393 32.7819C62.3274 32.7819 62.2747 32.4121 62.2747 31.9366C62.2747 31.7778 62.3802 30.6149 62.3802 30.3505C62.3802 29.9268 62.1687 29.769 61.9569 29.769ZM167.621 29.8217C166.88 29.8217 165.451 30.0332 164.658 30.0332C163.228 30.0332 162.276 29.9278 160.848 29.9278C159.895 29.9278 159.736 29.9275 159.736 30.6151C159.736 31.1439 159.948 31.1443 161.588 31.1443C163.387 31.1443 163.387 31.4611 163.387 33.0465C163.387 33.7864 161.482 39.2844 160.212 43.0896C159.366 45.5747 159.048 46.3143 158.678 46.3143C158.466 46.3143 157.831 45.4159 157.407 44.306C154.232 36.165 152.856 34.3147 152.856 32.7821C152.856 31.5666 153.174 31.2495 154.443 31.2495C155.555 31.2495 155.767 31.1966 155.767 30.721C155.767 30.1385 155.555 29.9276 154.443 29.9276C152.751 29.9276 150.898 30.0857 149.416 30.0857C148.146 30.0857 147.776 29.9803 146.295 29.9803C145.342 29.9803 145.184 30.245 145.184 30.721C145.184 31.1966 145.236 31.2495 146.295 31.2495C147.247 31.2495 147.618 31.5142 148.941 34.6849C151.851 41.5568 156.084 51.3355 156.084 51.9171C156.084 53.5025 151.534 59.7394 149.629 62.1176C147.83 64.3911 145.342 64.7082 145.342 65.0254C145.342 65.2898 145.871 65.5538 146.771 65.5538C147.935 65.5538 148.305 65.1312 149.892 64.9201C151.057 64.7612 151.692 64.7082 152.275 63.5456C153.967 60.0566 156.349 55.7748 159.683 47.6877C163.864 37.54 166.193 31.1965 167.357 31.1965C167.992 31.1965 168.732 30.932 168.732 30.4565C168.732 29.8745 168.468 29.8217 167.621 29.8217ZM43.012 30.5097C45.4467 30.5097 48.5684 34.4205 48.5684 35.742C48.5684 36.0592 48.5161 36.1649 47.9338 36.2704C43.9648 36.9048 41.1071 37.593 38.3555 37.593C37.7199 37.593 37.7201 37.5397 37.7201 37.2753C37.7201 36.5344 38.9907 30.5097 43.012 30.5097ZM104.716 30.5097C107.151 30.5097 110.273 34.4205 110.273 35.742C110.273 36.0592 110.22 36.1649 109.638 36.2704C105.669 36.9048 102.811 37.593 100.06 37.593C99.4249 37.593 99.4246 37.5397 99.4246 37.2753C99.4246 36.5344 100.694 30.5097 104.716 30.5097ZM135.239 30.5097C137.673 30.5097 140.796 34.4205 140.796 35.742C140.796 36.0592 140.743 36.1649 140.161 36.2704C136.192 36.9048 133.334 37.593 130.582 37.593C129.947 37.593 129.947 37.5397 129.947 37.2753C129.947 36.5344 131.216 30.5097 135.239 30.5097ZM14.8571 32.6784C21.4883 32.6784 25.9901 36.9326 25.9901 42.4023C25.9901 47.6893 22.5836 50.8503 17.9599 50.8503C16.0126 50.8503 14.0664 50.4246 13.3966 49.6949C12.8496 49.087 12.6665 45.6842 12.6665 45.1369V34.2581C12.6665 32.9214 13.1534 32.6784 14.8571 32.6784ZM45.0269 57.4867C43.7768 57.4867 42.7341 58.2399 42.7341 59.4882C42.7341 61.8604 45.8632 61.4375 45.8632 62.758C45.8632 63.2838 45.4603 63.7376 44.6446 63.7376C44.0971 63.7376 43.4055 63.4805 42.8267 63.0886L42.3107 63.9965C42.889 64.3983 43.6735 64.7808 44.6447 64.7808C45.9976 64.7808 47.1232 63.913 47.1232 62.7167C47.1232 60.3127 43.9941 61.0357 43.9941 59.4362C43.9941 58.9104 44.3453 58.529 45.0269 58.529C45.6361 58.529 46.1108 58.7354 46.6377 59.0033L47.0819 58.1159C46.4835 57.745 45.7701 57.4867 45.0269 57.4867ZM69.9732 57.4867C67.8458 57.4867 66.8961 59.0035 66.8961 61.1284C66.8961 63.1502 67.8355 64.7808 69.9732 64.7808C72.1108 64.7808 73.051 63.1502 73.051 61.1284C73.051 59.0035 72.1005 57.4867 69.9732 57.4867ZM86.5567 57.4867C84.4293 57.4867 83.3856 59.0136 83.3856 61.139C83.3856 63.305 84.3367 64.7808 86.5154 64.7808C87.4656 64.7808 88.3538 64.388 89.0765 63.7278L88.4465 62.9237C87.8682 63.45 87.2075 63.7377 86.5773 63.7377C85.2655 63.7377 84.6454 62.7998 84.6454 61.1284C84.6454 59.4678 85.3071 58.529 86.5567 58.529C87.2279 58.529 87.7237 58.7666 88.2707 59.2201L88.9113 58.3947C88.1676 57.7857 87.4344 57.4867 86.5567 57.4867ZM113.444 57.4867C111.317 57.4867 110.367 59.0035 110.367 61.1284C110.367 63.1502 111.307 64.7808 113.444 64.7808C115.582 64.7808 116.522 63.1502 116.522 61.1284C116.522 59.0035 115.572 57.4867 113.444 57.4867ZM14.6203 57.5898L13.4322 57.7142V64.667H14.6615V59.9218H14.6821L17.6667 64.667H18.7615V57.6004H17.5323V62.2432H17.5017L14.6203 57.5898ZM30.3867 57.5898V64.667H34.6832L34.7764 63.6246H31.616V61.6239H34.2703V60.5816H31.616V58.6321H34.6006V57.5898H30.3867ZM74.632 57.5898V64.667H75.8606V61.6239H78.4638V60.5816H75.8606V58.6321H78.7626V57.5898H74.632ZM93.6316 57.5898L92.1967 57.7035L89.7075 64.667H90.8542L91.4421 62.9641H94.2929L94.8816 64.667H96.1423L93.6316 57.5898ZM105.444 57.5898V64.667H106.672V61.6239H109.275V60.5816H106.672V58.6321H109.575V57.5898H105.444ZM124.795 57.5898L123.607 57.7142V64.667H124.835V59.9218H124.857L127.84 64.667H128.935V57.6004H127.707V62.2432H127.675L124.795 57.5898ZM136.637 57.5898L135.201 57.7035L132.712 64.667H133.859L134.448 62.9641H137.298L137.886 64.667H139.147L136.637 57.5898ZM6.48948 57.6004V62.2111C6.48948 63.8 7.36705 64.7807 9.1025 64.7807C10.8267 64.7807 11.7049 63.8003 11.7049 62.2012V57.6004H10.4756V62.2837C10.4756 63.1609 10.1046 63.7376 9.10262 63.7376C8.09031 63.7376 7.71817 63.1605 7.71817 62.273V57.6004H6.48948ZM20.5121 57.6004V64.667H21.7407V57.6004H20.5121ZM22.9486 57.6004L25.3857 64.667H26.7381L29.1861 57.6004H27.9773L26.625 61.5514C26.625 61.5514 26.4908 61.9532 26.1395 63.1603H26.0776C25.7365 61.9532 25.6028 61.5407 25.6028 61.5407L24.2497 57.6004H22.9486ZM36.4027 57.6004V64.667H37.6313V61.84H38.2199C38.6642 61.84 38.9224 62.2534 39.1289 62.6762L40.1097 64.6669H41.4629L40.1097 62.1188C40.0275 61.9536 39.9033 61.7675 39.6763 61.6331V61.6133C40.6054 61.2624 41.0088 60.5405 41.0088 59.6951C41.0088 58.4674 40.2338 57.6004 38.674 57.6004H36.4027ZM48.5867 57.6004V64.667H49.8152V57.6004H48.5867ZM51.2296 57.6004V58.6527H53.0995V64.667H54.328V58.6419H56.1147L56.2079 57.6004H51.2296ZM57.0122 57.6004L59.243 61.6437V64.667H60.4716V61.6437L62.7032 57.6004H61.3493L60.3478 59.6125C60.3478 59.6125 60.2239 59.8697 59.8731 60.6541H59.8425C59.4702 59.8697 59.3357 59.6125 59.3357 59.6125L58.3961 57.6004H57.0122ZM97.1378 57.6004V64.667H101.32L101.414 63.6246H98.3671V57.6004H97.1378ZM102.61 57.6004V64.667H103.839V57.6004H102.61ZM117.582 57.6004V64.667H118.811V61.84H119.4C119.844 61.84 120.102 62.2534 120.309 62.6762L121.29 64.6669H122.643L121.29 62.1188C121.208 61.9536 121.083 61.7675 120.856 61.6331V61.6133C121.785 61.2624 122.189 60.5405 122.189 59.6951C122.189 58.4674 121.414 57.6004 119.854 57.6004H117.582ZM130.479 57.6004V64.667H131.708V57.6004H130.479ZM69.9714 58.529C71.1902 58.529 71.7787 59.5913 71.7787 61.1284C71.7787 62.6654 71.1804 63.7376 69.9714 63.7376C68.7531 63.7376 68.1542 62.6649 68.1542 61.1176C68.1542 59.5806 68.7531 58.529 69.9714 58.529ZM113.442 58.529C114.66 58.529 115.249 59.5913 115.249 61.1284C115.249 62.6654 114.65 63.7376 113.442 63.7376C112.223 63.7376 111.625 62.6649 111.625 61.1176C111.625 59.5806 112.223 58.529 113.442 58.529ZM37.6312 58.6527H38.6434C39.4801 58.6527 39.7489 59.0447 39.7489 59.705C39.7489 60.3755 39.4077 60.8084 38.664 60.8084H37.6312V58.6527ZM118.811 58.6527H119.823C120.66 58.6527 120.929 59.0447 120.929 59.705C120.929 60.3755 120.588 60.8084 119.844 60.8084H118.811V58.6527ZM92.8421 58.8382H92.8628C93.3482 60.3029 93.4308 60.5297 93.4308 60.5297L93.9782 62.0875H91.7367L92.2841 60.5297C92.2841 60.5297 92.3671 60.303 92.8421 58.8382ZM135.848 58.8382H135.868C136.354 60.3029 136.437 60.5297 136.437 60.5297L136.984 62.0875H134.742L135.29 60.5297C135.29 60.5297 135.373 60.303 135.848 58.8382Z" fill="#383838"/>
</g>
<defs>
<clipPath id="clip0_83_240">
<rect width="168.409" height="52.8545" fill="white" transform="translate(1.05469 13.3364)"/>
</clipPath>
</defs>
</svg>
