<svg width="171" height="79" viewBox="0 0 171 79" fill="none" xmlns="http://www.w3.org/2000/svg">
<g clip-path="url(#clip0_83_236)">
<path d="M128.882 65.6657C123.616 64.5912 118.814 60.7634 116.496 55.7913C115.469 53.5897 115.124 51.911 114.978 48.4126C114.804 44.2545 114.916 43.612 116.343 40.5615C118.184 36.6291 121.15 33.493 124.583 31.8492C126.664 30.8534 127.913 30.0349 132.25 30.0349C136.695 30.0349 137.777 30.836 139.859 31.8999C143.023 33.5173 146.075 36.6928 147.88 40.2459C149.16 42.765 149.329 43.6674 149.339 48.0186C149.349 52.3534 149.18 53.2877 147.925 55.8414C144.266 63.2887 136.604 67.2413 128.882 65.6657ZM135.36 58.3252C139.944 57.0657 143.48 51.0701 142.624 46.0062C141.789 41.0642 137.37 37.1368 132.644 37.1368C124.534 37.1368 119.604 45.6311 123.385 53.0881C124.893 56.0605 125.997 57.1064 128.658 58.0808C131.175 59.0028 132.692 59.0581 135.36 58.3252ZM154.487 64.1254C154.369 64.0067 154.273 54.0381 154.273 41.9731V27.3572V20.0368H138.21C129.375 20.0368 122.146 19.9337 122.146 19.8076C122.146 19.6816 123.105 18.0493 124.277 16.1803L126.407 12.7822H144.227H162.046V38.3897V63.9972L158.373 64.1693C156.353 64.2639 154.604 64.2442 154.487 64.1254Z" fill="#838383"/>
<path d="M31.0241 65.5662C16.0978 63.3841 5.8035 49.4912 8.11545 34.6493C9.35519 26.6907 14.4301 19.1074 21.1004 15.2463C29.113 10.6083 40.6594 10.2809 48.1754 14.4787L50.1186 15.564V20.3905V25.2169L47.5982 23.4062C42.9497 20.0665 40.5775 19.2848 35.0914 19.2848C29.6503 19.2848 26.9419 20.161 23.185 23.1365C15.0597 29.5719 14.0839 44.5608 21.2723 52.5174C27.6702 59.5991 39.9029 60.115 48.1205 53.6497C49.159 52.8326 50.15 52.1641 50.3227 52.1641C50.4955 52.1641 50.6368 54.2594 50.6368 56.8203V61.4764L47.5621 63.0285C42.6853 65.4904 36.7427 66.4022 31.0241 65.5662ZM84.6022 65.5791C72.195 63.7712 63.2371 54.9179 61.5041 42.7507C60.1933 33.5476 63.4725 24.4767 70.3405 18.3076C75.4548 13.7139 81.2065 11.6109 88.7128 11.5902C93.7051 11.5765 98.138 12.5741 101.548 14.4787L103.491 15.564V20.3905V25.2169L100.971 23.4062C97.1877 20.6882 93.9811 19.4641 89.8205 19.1494C80.7422 18.4628 73.4867 23.4135 70.7767 32.1439C68.3624 39.9216 70.4891 48.9632 75.841 53.6741C79.4124 56.8177 83.0832 58.0622 88.7457 58.049C92.7014 58.0397 93.8998 57.8238 96.4334 56.6639C98.0842 55.9081 100.323 54.5865 101.408 53.7269C102.493 52.8674 103.464 52.1636 103.566 52.1629C103.667 52.1623 103.677 54.3501 103.587 57.0247L103.423 61.8876L99.9595 63.4696C94.9627 65.4709 89.8611 66.335 84.6022 65.5791Z" fill="#383838"/>
</g>
<defs>
<clipPath id="clip0_83_236">
<rect width="154.255" height="54.4723" fill="white" transform="translate(7.79102 11.5364)"/>
</clipPath>
</defs>
</svg>
