<svg width="171" height="80" viewBox="0 0 171 80" fill="none" xmlns="http://www.w3.org/2000/svg">
<path fill-rule="evenodd" clip-rule="evenodd" d="M144.959 66.2258L118.84 40.1881L144.959 14.0654L164.48 33.5928L156.391 41.7732L144.959 66.2258Z" fill="#838383" stroke="#838383" stroke-width="0.604863" stroke-miterlimit="2.613"/>
<path fill-rule="evenodd" clip-rule="evenodd" d="M144.92 66.2257L156.374 41.7977L164.48 33.6255L171 40.2142L144.92 66.2257Z" fill="#383838"/>
<path fill-rule="evenodd" clip-rule="evenodd" d="M10.8084 38.087H16.3643C16.3643 34.6611 13.9282 31.16 8.29689 31.16C2.73945 31.16 0 35.2849 0 40.1103C0 45.2475 3.27225 48.9053 8.67724 48.9053C13.8528 48.9053 16.3659 45.5594 16.3659 41.9783H10.8839C10.656 43.1475 10.1232 44.3903 8.60024 44.3903C7.00184 44.3903 5.7838 43.1475 5.7838 39.9551C5.7838 36.8411 7.22975 35.8303 8.60024 35.8303C10.0462 35.8303 10.6544 37.0762 10.8084 38.087ZM31.0533 48.5167V36.6076H35.7715V37.62C36.6092 36.6859 37.8272 35.9854 39.5011 35.9854C41.0995 35.9854 42.7733 36.7643 43.3077 37.8535C43.9929 36.8411 45.5158 36.0622 47.1897 36.0622C49.1684 36.0622 50.3865 36.9962 50.9947 37.9303C51.6045 36.9962 53.1259 35.9854 54.7243 35.9854C56.7801 35.9854 57.8457 36.8411 58.6818 37.9303C59.0908 37.3294 59.637 36.8384 60.2735 36.4997C60.91 36.1609 61.6177 35.9844 62.336 35.9854C65.9131 35.9854 66.8278 38.3973 66.8278 41.0443V48.5167H61.7277V41.9016C61.7277 40.7324 61.3458 40.267 60.5097 40.267C59.672 40.267 59.1392 41.0459 59.1392 41.9783V48.5167H53.9636V41.9016C53.9636 40.7324 53.6603 40.267 52.8226 40.267C51.9849 40.267 51.4521 41.0459 51.4521 41.9783V48.5167H46.352V41.9016C46.352 40.7324 45.9717 40.267 45.134 40.267C44.3717 40.267 43.8405 41.0459 43.8405 41.9783V48.5167H38.7404V41.9016C38.7404 40.7324 38.36 40.267 37.5223 40.267C36.6846 40.267 36.1518 41.0459 36.1518 41.9783V48.5167H31.0533ZM105.911 41.3562L103.705 43.5361V48.5167H102.639V31.3152H103.705V42.367L110.098 36.1406H111.316L106.751 40.6556L111.849 48.5167H110.71L105.911 41.3562ZM97.388 36.9978C95.4093 36.9978 93.6584 38.6324 93.6584 40.6556V48.5167H92.5944V36.2189H93.6584V38.3205C94.1158 37.5416 95.3338 35.9854 97.5405 35.9854C100.737 35.9854 101.649 38.3973 101.649 40.3438V48.5167H100.585V40.8891C100.585 37.6983 98.9849 36.9978 97.388 36.9978ZM75.2399 31.6271C78.2088 31.6271 80.109 33.34 80.0336 35.7519C80.0336 37.8535 78.8155 39.0211 77.6729 39.5664C78.6631 39.9567 80.8697 40.8907 80.8697 43.8464C80.7943 47.2723 78.2827 48.5167 75.8466 48.5167H68.7662V31.6271H75.2399ZM75.012 39.1762C76.5334 39.1762 78.9695 38.6308 78.8925 35.9071C78.8925 33.2601 76.9138 32.6379 75.3924 32.7163H69.838V39.1762H75.012ZM69.8365 47.4275H75.6957C78.5137 47.4275 79.6532 45.9496 79.6532 43.8464C79.6532 41.7464 77.9809 40.267 76.0022 40.267H69.8365V47.4275ZM92.137 47.7393V48.4399C91.7551 48.6718 91.2978 48.6718 91.073 48.6718C90.6911 48.6718 89.7009 48.4399 89.7009 46.4919C88.5583 48.1264 87.0369 48.827 85.2106 48.827C83.3074 48.827 81.4811 47.8929 81.4811 45.2459C81.4811 42.6773 83.5353 42.0551 84.3714 41.9C85.2107 41.7433 87.2649 41.4314 87.7977 41.3546C88.3305 41.1979 89.7009 41.1979 89.7009 39.952V38.8612C89.7009 37.9272 89.0157 36.6828 86.3502 36.6828C83.3813 36.6828 82.85 39.2514 82.85 39.485H82.0139C82.0139 38.0071 83.0779 35.8271 86.2008 35.8271C90.6156 35.8271 90.7665 38.2406 90.7665 39.7185V46.7222C90.765 47.5826 91.2223 47.9713 92.137 47.7393ZM89.6255 43.9248V41.8216L85.4385 42.5222C84.2959 42.7541 82.5451 43.2227 82.5451 45.3227C82.5451 47.4259 84.1451 47.8945 85.514 47.8945C87.5682 47.8945 89.6255 46.4934 89.6255 43.9248ZM23.4432 35.7519C28.3154 35.7519 30.5975 38.8643 30.5975 42.367C30.5975 46.962 27.0958 48.9053 23.6711 48.9053C19.3332 48.9053 16.8971 46.1048 16.8971 42.6037C16.8971 39.2546 18.7234 35.7519 23.4432 35.7519ZM23.6711 45.5594C25.0416 45.5594 25.2695 43.6929 25.2695 42.4469C25.2695 41.2778 25.0416 39.4097 23.6711 39.4097C22.3006 39.4097 22.1481 41.2762 22.1481 42.4469C22.1481 43.6929 22.3006 45.5594 23.6711 45.5594Z" fill="#383838"/>
</svg>
