<svg width="171" height="79" viewBox="0 0 171 79" fill="none" xmlns="http://www.w3.org/2000/svg">
<g clip-path="url(#clip0_83_235)">
<path d="M75.5087 34.0651H64.5821V36.5411L64.9215 36.5055L64.9297 36.4646C65.0028 36.0987 65.6598 35.3983 66.469 35.3983H68.9092L68.9104 48.1026H71.2945L71.2805 35.4076H73.7769C74.6013 35.4076 75.1419 35.8588 75.2337 36.2831L75.2442 36.3292L75.59 36.3187L75.5666 34.0651H75.5087ZM4.61721 33.2136C3.03638 34.8537 2.13013 37.1008 2.13013 39.3824C2.13013 41.9208 3.15632 44.2287 5.0209 45.8805C6.80182 47.4588 9.183 48.3273 11.7262 48.3273C13.0584 48.3273 15.6707 48.1008 18.1911 46.5868L18.2888 46.5278L18.589 42.9534L18.118 42.8927L18.0484 43.0386C16.1978 46.899 13.2843 46.899 12.1873 46.899C7.27396 46.899 5.03553 42.8331 5.03553 39.0556C5.03553 35.4018 7.25231 31.7141 12.2048 31.7141C13.7236 31.7141 16.4851 32.2102 17.922 35.5237L18.0016 35.707L18.4638 35.5658L18.1619 31.8402L18.039 31.787C15.731 30.7825 13.8693 30.336 12.0036 30.336C8.98818 30.336 6.43381 31.3312 4.61721 33.2136ZM20.938 34.0634H20.8795L20.8836 34.3879L20.9134 34.4031C21.1129 34.5093 21.3358 35.0492 21.3358 35.6551L21.3352 48.102H23.6761L23.6667 41.7061L24.6905 41.7323C25.6103 41.7837 25.973 42.3913 26.4329 43.1606L26.4902 43.2557L26.7845 43.7513C27.2847 44.5935 27.9704 45.7492 28.683 46.8039C29.1949 47.5633 29.8344 47.9993 30.6371 48.1376C31.2099 48.2368 32.3536 48.1983 32.7842 48.0664L33.2997 47.9327L33.4951 47.8825L32.7842 47.6636C32.4976 47.5761 32.0459 47.3782 31.4386 46.6784C31.0624 46.2453 30.454 45.277 29.5331 43.8102L28.6204 42.3615L28.6028 42.3358C28.3589 41.9804 27.9505 41.4031 27.2642 41.0366C28.5824 40.6064 29.8765 39.4081 29.8765 37.6227C29.8765 37.1166 29.746 36.1442 28.8749 35.3206C27.9914 34.4848 26.6154 34.0622 24.7842 34.0622L20.938 34.0634ZM24.9427 35.3288C27.3438 35.4298 27.4128 37.4557 27.4128 37.6851C27.4128 39.7233 25.904 40.4465 24.6122 40.4465L23.6737 40.4266V35.3504C24.0959 35.3175 24.5197 35.3103 24.9427 35.3288ZM44.8891 34.0634H44.8242L44.868 34.4113L44.8955 34.4247C45.0997 34.5262 45.2922 35.0288 45.2922 35.459L45.2782 48.1014H49.2899C51.9385 48.1014 54.1307 47.279 55.629 45.7247C56.8812 44.4136 57.582 42.6736 57.5872 40.8626C57.5872 39.7758 57.2198 38.134 56.1883 36.788C54.8052 34.9803 52.6124 34.064 49.6696 34.064L44.8891 34.0634ZM47.6634 35.4105L48.919 35.414C49.253 35.4187 50.0967 35.4391 50.6894 35.5284C54.6309 36.1244 55.0562 39.4571 55.0562 40.8632C55.0562 42.0148 54.8503 43.6532 53.8703 44.9209C52.9091 46.1653 51.402 46.7957 49.3899 46.7957C48.9102 46.7957 48.3134 46.7945 47.6629 46.7642L47.6634 35.4105ZM62.4332 34.0634H59.6835L59.6928 34.4031L59.7238 34.4188C59.9772 34.5443 60.141 35.0008 60.141 35.5809L60.1404 48.1008H62.4876L62.4911 34.0622L62.4332 34.0634ZM109.714 34.0634H106.947L106.974 34.3792L107.003 34.3937C107.252 34.5181 107.42 34.9944 107.42 35.5809V48.1008H109.767L109.771 34.0622L109.714 34.0634ZM41.8556 34.0634H33.9889L34.0333 34.3926L34.0603 34.4054C34.275 34.5117 34.4973 35.0078 34.4973 35.6539L34.4961 48.1008H42.3529L42.9239 45.6132L42.6074 45.5L42.5184 45.6383C41.8684 46.658 41.2085 46.7934 38.9291 46.7934C38.117 46.8097 37.3249 46.7391 36.8287 46.693V40.9648H40.803V39.6994L36.8287 39.6988V35.3317L40.0507 35.3685C40.7767 35.3685 41.5747 36.0619 41.6449 36.4798L41.6537 36.5288L41.9755 36.5213L41.9123 34.0611H41.8556V34.0634ZM142.428 34.0634H134.587L134.602 34.4223L134.633 34.4364C134.845 34.5426 135.07 35.0054 135.07 35.6539L135.069 48.1008H142.925L143.497 45.6109L143.143 45.5011L143.055 45.6383C142.405 46.658 141.752 46.7934 139.504 46.7934C138.691 46.8097 137.899 46.7391 137.403 46.693V40.9648H141.377V39.6994L137.403 39.6988V35.3317L140.626 35.3685C141.515 35.3685 142.183 36.0444 142.183 36.4833V36.544L142.549 36.5201L142.486 34.0622L142.428 34.0634ZM82.3463 31.4386C81.5184 32.0328 80.5279 33.1237 80.5086 34.9558V35.0095C80.5086 37.2619 81.9473 38.4456 84.2653 39.6182L84.2571 39.5955C84.3167 39.6445 84.5186 39.7484 85.1481 40.0683C87.0841 41.0377 88.4823 41.7387 88.4823 43.7098C88.4823 44.3863 88.2255 45.3616 87.5088 46.0702C86.9115 46.6603 86.1082 46.9545 85.1218 46.944C82.1667 46.913 81.1206 44.3291 80.8082 43.2178L80.7543 43.0257L80.2576 43.108L80.3951 46.777L80.5022 46.8377C81.4453 47.3852 83.0238 48.3004 85.2838 48.3232C86.8851 48.339 88.5087 47.6887 89.6273 46.5838C90.6102 45.6138 91.1286 44.384 91.1286 43.0287C91.1286 40.0519 88.9919 38.9353 86.726 37.7522L86.3007 37.5293C83.9809 36.3672 82.8892 35.6597 82.9044 34.2006C82.9149 33.2095 83.6632 31.6423 85.6279 31.6621C87.9119 31.6849 89.1739 33.4003 89.4313 34.4743L89.4781 34.6692L89.9702 34.6062L89.8022 31.4304L89.711 31.3686C88.3577 30.4586 86.6611 30.3454 85.9935 30.3389C84.6701 30.3255 83.3397 30.7259 82.3463 31.4386ZM113.502 37.6133C113.483 39.5581 114.653 40.5434 116.549 41.5029L117.264 41.866C118.757 42.6143 119.744 43.108 119.744 44.506C119.744 44.7499 119.693 45.5963 119.042 46.2401C118.591 46.686 117.965 46.9078 117.183 46.8996C114.945 46.8774 114.123 45.1404 113.832 44.1073L113.777 43.9147L113.302 43.9929L113.412 46.9498L113.52 47.0105C114.266 47.4436 115.514 48.1674 117.309 48.1866C118.582 48.1995 119.873 47.6829 120.762 46.8027C121.545 46.0299 121.959 45.0505 121.959 43.9696C121.959 41.5111 120.254 40.621 118.45 39.6772L118.131 39.5103C116.192 38.539 115.516 38.103 115.527 37.0191C115.534 36.258 116.106 35.1333 117.648 35.1484C119.534 35.1671 120.357 36.5283 120.53 37.2462L120.576 37.4417L121.051 37.3804L120.915 34.8122L120.823 34.751C119.746 34.0272 118.4 33.9367 117.87 33.9326C115.771 33.9099 113.528 35.194 113.502 37.6133ZM124.038 37.6133C124.019 39.5575 125.189 40.5434 127.086 41.5035L127.8 41.866C129.294 42.6143 130.279 43.1086 130.279 44.506C130.279 44.7499 130.228 45.5963 129.578 46.2401C129.127 46.686 128.5 46.9078 127.719 46.8996C125.481 46.8774 124.659 45.1404 124.368 44.1073L124.312 43.9147L123.837 43.9929L123.948 46.9492L124.056 47.0105C124.802 47.4436 126.051 48.1674 127.844 48.1866C129.118 48.1995 130.409 47.6829 131.298 46.8027C132.081 46.0299 132.495 45.0505 132.495 43.9696C132.495 41.5111 130.791 40.621 128.986 39.6772L128.667 39.5103C126.729 38.5396 126.052 38.103 126.063 37.0191C126.074 36.525 126.277 36.0545 126.63 35.707C127.008 35.3346 127.547 35.1414 128.185 35.1484C130.071 35.1671 130.893 36.5283 131.065 37.2468L131.113 37.4417L131.587 37.3804L131.451 34.8122L131.358 34.751C130.282 34.0272 128.934 33.9367 128.407 33.9326C126.308 33.9099 124.063 35.194 124.038 37.6133ZM103.875 34.0517L102.026 34.064L102.056 34.3797L102.085 34.3937C102.177 34.4399 102.482 34.6599 102.482 35.5471L102.493 43.5265C102.493 45.0721 101.924 46.916 99.217 46.916C96.6597 46.916 96.1349 45.3902 96.1349 43.0987L96.1372 34.064H93.212L93.2336 34.3768L93.2611 34.3914C93.4483 34.4901 93.7637 34.8607 93.7637 35.6189V43.0981C93.7637 47.7442 96.8247 48.2818 99.1287 48.2818C100.253 48.2818 103.923 47.9415 103.923 43.561L103.934 34.0511L103.875 34.0517ZM162.62 30.0535C164.274 30.5835 166.029 31.3271 167.871 32.3532C163.351 24.9049 155.266 16.793 147.333 11.5364C149.378 13.5559 152.697 18.0018 153.557 22.7692C156.807 25.0794 159.874 27.5379 162.62 30.0535ZM162.614 30.0506C158.737 28.8062 155.433 28.7443 152.98 28.9959C153.843 26.9781 153.931 24.8495 153.56 22.7797C147.556 18.5125 140.939 14.7419 134.576 12.05C139.245 15.2036 144.392 24.3008 146.552 34.0593C151.153 32.6999 158.241 31.7619 167.376 34.8292C165.939 33.2293 164.34 31.6289 162.614 30.0506Z" fill="#383838"/>
</g>
<defs>
<clipPath id="clip0_83_235">
<rect width="165.818" height="36.7909" fill="white" transform="translate(2.09106 11.5364)"/>
</clipPath>
</defs>
</svg>
