<svg width="30" height="30" viewBox="0 0 30 30" fill="none" xmlns="http://www.w3.org/2000/svg">
<g clip-path="url(#clip0_167_79)">
<path d="M28.125 20.625H20.3027L17.6514 23.2764C16.9453 23.9824 16.002 24.375 15 24.375C13.998 24.375 13.057 23.985 12.3486 23.2764L9.69727 20.625H1.875C0.839648 20.625 0 21.4646 0 22.5V28.125C0 29.1604 0.839648 30 1.875 30H28.125C29.1604 30 30 29.1604 30 28.125V22.5C30 21.4629 29.1621 20.625 28.125 20.625ZM25.3125 26.7188C24.5391 26.7188 23.9062 26.0859 23.9062 25.3125C23.9062 24.5391 24.5391 23.9062 25.3125 23.9062C26.0859 23.9062 26.7188 24.5391 26.7188 25.3125C26.7188 26.0859 26.0859 26.7188 25.3125 26.7188ZM13.6758 21.9492C14.0391 22.3184 14.5195 22.5 15 22.5C15.4805 22.5 15.9598 22.3169 16.3254 21.9507L23.8254 14.4507C24.5572 13.7183 24.5572 12.5317 23.8254 11.7993C23.093 11.0669 21.9059 11.0669 21.174 11.7993L16.875 16.1016V1.875C16.875 0.839648 16.0354 0 15 0C13.9629 0 13.125 0.839648 13.125 1.875V16.1016L8.82422 11.8008C8.09238 11.0684 6.90527 11.0684 6.17285 11.8008C5.44102 12.5332 5.44102 13.7197 6.17285 14.4521L13.6758 21.9492Z" fill="#001117"/>
</g>
<defs>
<clipPath id="clip0_167_79">
<rect width="30" height="30" fill="white"/>
</clipPath>
</defs>
</svg>
