<svg width="30" height="30" viewBox="0 0 30 30" fill="none" xmlns="http://www.w3.org/2000/svg">
<path d="M15 20.625C14.0314 20.625 13.0629 20.3073 12.2367 19.6635L0 10.1484V23.4375C0 24.9902 1.25918 26.25 2.8125 26.25H27.1875C28.7408 26.25 30 24.9908 30 23.4375V10.1484L17.7656 19.6699C16.9395 20.3086 15.9668 20.625 15 20.625ZM0.954492 8.51367L13.3881 18.1875C14.3367 18.9258 15.6656 18.9258 16.6143 18.1875L29.0479 8.51367C29.5957 8.04492 30 7.32422 30 6.5625C30 5.00918 28.7402 3.75 27.1875 3.75H2.8125C1.25918 3.75 0 5.00918 0 6.5625C0 7.32422 0.352149 8.04492 0.954492 8.51367Z" fill="#001117"/>
</svg>
