<svg width="64" height="50" viewBox="0 0 64 50" fill="none" xmlns="http://www.w3.org/2000/svg">
<path fill-rule="evenodd" clip-rule="evenodd" d="M20.4444 9.7931C15.658 9.7931 11.7778 13.6836 11.7778 18.4828V31.5172C11.7778 36.3164 15.658 40.2069 20.4444 40.2069H24.1135L35.4469 4.69596C35.5792 4.2814 35.9644 4 36.3996 4H43.5556C51.533 4 58 10.4842 58 18.4828V31.5172C58 39.5158 51.533 46 43.5556 46H34.3492C33.667 46 33.1851 45.3319 33.4003 44.6845L34.8889 40.2069H43.5556C48.342 40.2069 52.2222 36.3164 52.2222 31.5172V18.4828C52.2222 13.6836 48.342 9.7931 43.5556 9.7931H39.8865L28.5531 45.304C28.4208 45.7186 28.0356 46 27.6004 46H20.4444C12.467 46 6 39.5158 6 31.5172V18.4828C6 10.4842 12.467 4 20.4444 4H29.6508C30.333 4 30.8149 4.66809 30.5997 5.31547L29.1111 9.7931H20.4444Z" fill="#EEEEEE"/>
</svg>
