<svg width="30" height="30" viewBox="0 0 30 30" fill="none" xmlns="http://www.w3.org/2000/svg">
<g clip-path="url(#clip0_167_43)">
<path d="M20.625 15C20.625 16.3008 20.5547 17.5547 20.4316 18.75H9.56836C9.44531 17.5547 9.32227 16.3008 9.32227 15C9.32227 13.6992 9.44531 12.4453 9.56836 11.25H20.4316C20.5547 12.4453 20.625 13.6992 20.625 15ZM29.5254 11.25C29.8359 12.4512 30 13.7051 30 15C30 16.2949 29.8359 17.5488 29.5254 18.75H22.3125C22.4355 17.543 22.5 16.2363 22.5 15C22.5 13.7109 22.4355 12.457 22.3125 11.25H29.5254ZM28.9102 9.375H22.0723C21.4863 5.6332 20.3262 2.49727 18.832 0.494648C23.4258 1.70449 27.1523 5.03555 28.9102 9.375ZM20.1738 9.375H9.82617C10.1836 7.24219 10.7344 5.3543 11.4082 3.8291C12.0234 2.4457 12.709 1.44199 13.3711 0.80918C14.0273 0.186211 14.5723 0 15 0C15.4277 0 15.9727 0.186211 16.6289 0.80918C17.291 1.44199 17.9766 2.4457 18.5918 3.8291C19.2656 5.3543 19.8164 7.24219 20.1738 9.375ZM1.09043 9.375C2.84707 5.03555 6.57422 1.70449 11.168 0.494648C9.67383 2.49727 8.51367 5.6332 7.92773 9.375H1.09043ZM7.6875 11.25C7.56445 12.457 7.44727 13.7109 7.44727 15C7.44727 16.2363 7.56445 17.543 7.6875 18.75H0.472559C0.164062 17.5488 0 16.2949 0 15C0 13.7051 0.164062 12.4512 0.472559 11.25H7.6875ZM11.4082 26.168C10.7344 24.6445 10.1836 22.7578 9.82617 20.625H20.1738C19.8164 22.7578 19.2656 24.6445 18.5918 26.168C17.9766 27.5566 17.291 28.5586 16.6289 29.1914C15.9727 29.8125 15.4277 30 14.9473 30C14.5723 30 14.0273 29.8125 13.3711 29.1914C12.709 28.5586 12.0234 27.5566 11.4082 26.168ZM11.168 29.5078C6.57422 28.2949 2.84707 24.9668 1.09043 20.625H7.92773C8.51367 24.3691 9.67383 27.5039 11.168 29.5078ZM18.832 29.5078C20.3262 27.5039 21.4863 24.3691 22.0723 20.625H28.9102C27.1523 24.9668 23.4258 28.2949 18.832 29.5078Z" fill="#001117"/>
</g>
<defs>
<clipPath id="clip0_167_43">
<rect width="30" height="30" fill="white"/>
</clipPath>
</defs>
</svg>
